<?xml version="1.0" encoding="utf-8"?>
<!-- Generator: Adobe Illustrator 23.0.5, SVG Export Plug-In . SVG Version: 6.00 Build 0)  -->
<svg version="1.1" id="图层_1" xmlns="http://www.w3.org/2000/svg" xmlns:xlink="http://www.w3.org/1999/xlink" x="0px" y="0px"
	 viewBox="0 0 88 88" style="enable-background:new 0 0 88 88;" xml:space="preserve">
<style type="text/css">
	.st0{fill-rule:evenodd;clip-rule:evenodd;fill:#C1DFFF;}
	.st1{clip-path:url(#SVGID_2_);}
	.st2{fill-rule:evenodd;clip-rule:evenodd;fill:#409EFF;}
	.st3{fill:#409EFF;}
	.st4{opacity:0.5;fill:#409EFF;enable-background:new    ;}
</style>
<g>
	<path class="st0" d="M0,0h82c3.3,0,6,2.7,6,6v82L0,0z"/>
	<g>
		<g>
			<defs>
				<path id="SVGID_1_" d="M0,0h82c3.3,0,6,2.7,6,6v82L0,0z"/>
			</defs>
			<clipPath id="SVGID_2_">
				<use xlink:href="#SVGID_1_"  style="overflow:visible;"/>
			</clipPath>
			<g class="st1">
				<g>
					<path class="st2" d="M76.5,12H26v35h50.5V12z M72.6,15.9H29.9v27.2h42.8L72.6,15.9L72.6,15.9z"/>
					<path class="st2" d="M34.3,51.4h33v3.9h-33C34.3,55.3,34.3,51.4,34.3,51.4z"/>
					<rect x="44.7" y="47" class="st3" width="13.6" height="8.3"/>
					<rect x="33.8" y="19.8" class="st4" width="35" height="19.4"/>
				</g>
			</g>
		</g>
	</g>
</g>
</svg>
