<?xml version="1.0" encoding="utf-8"?>
<!-- Generator: Adobe Illustrator 23.0.5, SVG Export Plug-In . SVG Version: 6.00 Build 0)  -->
<svg version="1.1" id="图层_1" xmlns="http://www.w3.org/2000/svg" xmlns:xlink="http://www.w3.org/1999/xlink" x="0px" y="0px"
	 viewBox="0 0 88 88" style="enable-background:new 0 0 88 88;" xml:space="preserve">
<style type="text/css">
	.st0{clip-path:url(#SVGID_2_);}
	.st1{fill-rule:evenodd;clip-rule:evenodd;fill:#C1DFFF;}
	.st2{fill-rule:evenodd;clip-rule:evenodd;fill:#409EFF;}
</style>
<g>
	<g>
		<defs>
			<path id="SVGID_1_" d="M0,0h82c3.3,0,6,2.7,6,6v82L0,0z"/>
		</defs>
		<clipPath id="SVGID_2_">
			<use xlink:href="#SVGID_1_"  style="overflow:visible;"/>
		</clipPath>
		<g class="st0">
			<path class="st1" d="M0,0h82c3.3,0,6,2.7,6,6v82L0,0z"/>
			<g>
				<path id="Union" class="st2" d="M76,12H56.7v19.2H76V12z M72.2,15.8H60.6v11.6h11.6V15.8z M63.5,18.7h5.8v5.8h-5.8
					C63.5,24.5,63.5,18.7,63.5,18.7z M49.1,12h3.8v3.8h-3.8V12z M32.7,18.7h5.7l0.1,5.8l-0.2-0.2l0.2,0.2l-5.8-0.1V18.7L32.7,18.7z
					 M41.1,12H26l0,0l0,0v15.1h3.8V15.8h11.3V12z M41.1,12h4.2v19.4l-0.1-0.1l0.1,0.1H26v-4.2h15.1V12z M52.9,19.7h-3.8v3.8h3.8
					V19.7z M63.5,49.4h5.8v5.9l0,0l0,0l0,0l0,0h-5.8L63.5,49.4l2.1,2.1L63.5,49.4z M60.6,46.6h11.5v11.6l0.3,0.3l-0.3-0.3H60.6V46.6
					L60.6,46.6L60.6,46.6L60.6,46.6L60.6,46.6z M56.8,42.8h-3.9v3.8h7.7l0,0h-3.8v3.9h-3.9v-7.7l0,0V39h-7.7v3.8H49v7.7h3.8v3.8H49
					V62h3.9v-3.8h3.8V62h3.8l0,0h15.4l0,0l0,0l0,0l0,0V46.6l0,0v-3.8H72V39h4v-3.9h-7.7v3.8h-3.8v-3.8h-7.7v-3.8H53v-3.8h-3.8v7.7
					h-7.7V39H53l-2-2l2,2v-0.1h3.8l0,0h7.7v3.9h-3.9v3.8l0,0v-7.7h-3.8V42.8L56.8,42.8z M26,35.1v3.8h3.8v-3.8H26z M33.7,38.9v-3.8
					h3.8v3.8H33.7z M26,62V42.7h19.2V62H26z M29.8,58.2V46.6h11.6v11.6C41.4,58.2,29.8,58.2,29.8,58.2z M32.7,49.5v5.8h5.8v-5.8
					H32.7z"/>
			</g>
		</g>
	</g>
</g>
</svg>
